<svg xmlns="http://www.w3.org/2000/svg" xmlns:xlink="http://www.w3.org/1999/xlink" width="77" height="76"><defs><filter id="a" x="-135.4%" y="-125%" width="370.8%" height="395.5%" filterUnits="objectBoundingBox"><feOffset dy="5" in="SourceAlpha" result="shadowOffsetOuter1"/><feGaussianBlur in="shadowOffsetOuter1" result="shadowBlurOuter1" stdDeviation="10"/><feColorMatrix in="shadowBlurOuter1" values="0.75 0 0 0 0 0 0.75 0 0 0 0 0 0.75 0 0 0 0 0 0.10 0"/></filter><path id="b" d="M40.896 14.743a2.111 2.111 0 00-1.706-1.431l-11.604-1.678-5.19-10.462A2.116 2.116 0 0020.5 0c-.805 0-1.54.454-1.896 1.172l-5.189 10.462L1.81 13.312a2.111 2.111 0 00-1.706 1.431A2.097 2.097 0 00.638 16.9l8.398 8.144-1.982 11.499c-.137.789.19 1.586.84 2.056.65.47 1.514.533 2.227.16L20.5 33.33l10.38 5.43a2.122 2.122 0 002.225-.16 2.097 2.097 0 00.841-2.057l-1.981-11.5 8.397-8.143c.576-.56.783-1.395.534-2.156"/></defs><g fill="none" fill-rule="evenodd"><use fill="#000" filter="url(#a)" transform="translate(18 8)" xlink:href="#b"/><path fill="#FFF" d="M58.896 22.743a2.111 2.111 0 00-1.706-1.431l-11.604-1.678-5.19-10.462A2.116 2.116 0 0038.5 8c-.805 0-1.54.454-1.896 1.172l-5.189 10.462-11.605 1.678a2.111 2.111 0 00-1.706 1.431 2.097 2.097 0 00.534 2.156l8.398 8.144-1.982 11.499c-.137.789.19 1.586.84 2.056.65.47 1.514.533 2.227.16L38.5 41.33l10.38 5.43a2.122 2.122 0 002.225-.16 2.097 2.097 0 00.841-2.057l-1.981-11.5 8.397-8.143c.576-.56.783-1.395.534-2.156"/></g></svg>